<svg width="14" height="13" viewBox="0 0 14 13" fill="none" xmlns="http://www.w3.org/2000/svg">
<path d="M3.3617 5.27961C3.28971 5.3533 3.20289 5.4124 3.10643 5.4534C3.00997 5.49439 2.90584 5.51644 2.80025 5.51821C2.69466 5.51999 2.58978 5.50146 2.49186 5.46374C2.39395 5.42602 2.305 5.36987 2.23032 5.29865C2.15565 5.22742 2.09678 5.14259 2.05723 5.04919C2.01768 4.9558 1.99826 4.85577 2.00012 4.75506C2.00199 4.65435 2.0251 4.55503 2.06808 4.46303C2.11106 4.37102 2.17302 4.28822 2.25029 4.21955L6.44429 0.219351C6.59174 0.0788934 6.79161 0 7 0C7.20839 0 7.40826 0.0788934 7.55571 0.219351L11.7497 4.21955C11.827 4.28822 11.8889 4.37102 11.9319 4.46303C11.9749 4.55503 11.998 4.65435 11.9999 4.75506C12.0017 4.85577 11.9823 4.9558 11.9428 5.04919C11.9032 5.14259 11.8443 5.22742 11.7697 5.29865C11.695 5.36987 11.6061 5.42602 11.5081 5.46374C11.4102 5.50146 11.3053 5.51999 11.1998 5.51821C11.0942 5.51644 10.99 5.49439 10.8936 5.4534C10.7971 5.4124 10.7103 5.3533 10.6383 5.27961L7.78638 2.55947V12.25C7.78638 12.4489 7.70353 12.6397 7.55605 12.7803C7.40858 12.921 7.20856 13 7 13C6.79144 13 6.59142 12.921 6.44395 12.7803C6.29647 12.6397 6.21362 12.4489 6.21362 12.25V2.55947L3.3617 5.27961Z" fill="white"/>
</svg>
