<svg width="142" height="16" viewBox="0 0 142 16" fill="none" xmlns="http://www.w3.org/2000/svg">
<path d="M0.0162764 3.19963H2.26242L5.25727 12.5585L8.17074 3.19963H10.3518L6.31523 15H4.10164L0.0162764 3.19963ZM12.3386 3.19963V15H10.4017V3.19963H12.3386ZM19.1247 11.5494V10.8821C17.7141 11.0123 16.7104 11.2022 16.1136 11.4518C15.5277 11.6905 15.2347 12.054 15.2347 12.5423C15.2347 12.9221 15.3812 13.2205 15.6741 13.4375C15.9671 13.6545 16.3577 13.763 16.846 13.763C17.5731 13.763 18.1319 13.5785 18.5225 13.2096C18.924 12.8407 19.1247 12.2873 19.1247 11.5494ZM16.4229 15.2116C15.468 15.2116 14.6867 14.9729 14.0791 14.4954C13.4823 14.018 13.1839 13.3832 13.1839 12.5911C13.1839 12.233 13.249 11.9129 13.3792 11.6308C13.5202 11.3487 13.7318 11.1045 14.014 10.8984C14.2961 10.6922 14.5999 10.5186 14.9254 10.3775C15.251 10.2256 15.6524 10.0954 16.1299 9.98688C16.6182 9.87837 17.0793 9.79156 17.5134 9.72646C17.9583 9.66135 18.4791 9.59625 19.0759 9.53114V9.36838C19.0759 8.06627 18.4683 7.41521 17.2529 7.41521C16.743 7.41521 16.3252 7.55085 15.9997 7.82212C15.685 8.09339 15.5168 8.48403 15.4951 8.99402H13.5908C13.6559 8.10425 14.0302 7.38266 14.7138 6.82926C15.3974 6.26502 16.2655 5.98289 17.3181 5.98289C18.4574 5.98289 19.3635 6.28129 20.0362 6.87809C20.709 7.46404 21.0345 8.41892 21.0128 9.74273C21.0128 9.85124 21.0074 10.1822 20.9965 10.7356C20.9857 11.289 20.9802 11.7122 20.9802 12.0051C20.9802 13.2964 21.067 14.2947 21.2407 15H19.4665C19.3797 14.5226 19.3255 14.1265 19.3038 13.8118C18.7504 14.745 17.7901 15.2116 16.4229 15.2116ZM27.9683 7.41521V3.19963H29.9052V15H27.9683V13.8444C27.4149 14.7559 26.5468 15.2116 25.364 15.2116C24.2898 15.2116 23.3838 14.7938 22.6459 13.9583C21.9189 13.1119 21.5554 11.9997 21.5554 10.6217C21.5554 9.26529 21.9189 8.16393 22.6459 7.31755C23.3838 6.47118 24.2898 6.048 25.364 6.048C26.5468 6.048 27.4149 6.50374 27.9683 7.41521ZM27.4149 12.8515C27.8381 12.3307 28.0496 11.5874 28.0496 10.6217C28.0496 9.65593 27.8381 8.91806 27.4149 8.40807C26.9917 7.88723 26.4491 7.62681 25.7872 7.62681C25.1253 7.62681 24.5882 7.89808 24.1759 8.44062C23.7744 8.98317 23.5736 9.71018 23.5736 10.6217C23.5736 11.5548 23.7744 12.2927 24.1759 12.8352C24.5882 13.3669 25.1253 13.6328 25.7872 13.6328C26.4491 13.6328 26.9917 13.3724 27.4149 12.8515ZM31.2781 3.19963H33.215V5.1528H31.2781V3.19963ZM31.2781 6.24331H33.215V15H31.2781V6.24331ZM41.4008 8.63594H39.5779C39.3826 7.89808 38.7424 7.52915 37.6573 7.52915C37.2124 7.52915 36.8272 7.62138 36.5017 7.80585C36.187 7.97946 36.0296 8.20733 36.0296 8.48945C36.0296 9.032 36.4203 9.37923 37.2015 9.53114L38.4385 9.77529C38.9268 9.87294 39.3392 9.98145 39.6756 10.1008C40.0228 10.2093 40.3483 10.3612 40.6521 10.5566C40.956 10.7519 41.1838 11.0014 41.3357 11.3053C41.4877 11.6091 41.5636 11.9672 41.5636 12.3795C41.5636 13.2584 41.2055 13.9529 40.4894 14.4629C39.7732 14.962 38.8943 15.2116 37.8526 15.2116C36.8001 15.2116 35.932 14.9457 35.2484 14.4141C34.5648 13.8715 34.1687 13.177 34.0602 12.3307H35.9483C36.1327 13.2747 36.7892 13.7467 37.9177 13.7467C38.4385 13.7467 38.8617 13.6436 39.1873 13.4375C39.5128 13.2313 39.6756 12.9546 39.6756 12.6074C39.6756 12.0106 39.171 11.6091 38.1618 11.4029L36.8435 11.1425C36.0188 10.9689 35.3732 10.6868 34.9066 10.2961C34.44 9.9055 34.2067 9.33582 34.2067 8.58711C34.2067 7.8384 34.5539 7.23075 35.2484 6.76416C35.9537 6.28672 36.7946 6.048 37.7712 6.048C38.6718 6.048 39.4585 6.27044 40.1313 6.71533C40.804 7.16022 41.2272 7.80042 41.4008 8.63594ZM44.2715 3.19963V15H42.3346V3.19963H44.2715ZM51.0576 11.5494V10.8821C49.6469 11.0123 48.6432 11.2022 48.0464 11.4518C47.4605 11.6905 47.1675 12.054 47.1675 12.5423C47.1675 12.9221 47.314 13.2205 47.607 13.4375C47.9 13.6545 48.2906 13.763 48.7789 13.763C49.5059 13.763 50.0647 13.5785 50.4553 13.2096C50.8568 12.8407 51.0576 12.2873 51.0576 11.5494ZM48.3557 15.2116C47.4008 15.2116 46.6195 14.9729 46.0119 14.4954C45.4151 14.018 45.1167 13.3832 45.1167 12.5911C45.1167 12.233 45.1818 11.9129 45.312 11.6308C45.4531 11.3487 45.6647 11.1045 45.9468 10.8984C46.2289 10.6922 46.5327 10.5186 46.8583 10.3775C47.1838 10.2256 47.5853 10.0954 48.0627 9.98688C48.551 9.87837 49.0122 9.79156 49.4462 9.72646C49.8911 9.66135 50.4119 9.59625 51.0087 9.53114V9.36838C51.0087 8.06627 50.4011 7.41521 49.1858 7.41521C48.6758 7.41521 48.258 7.55085 47.9325 7.82212C47.6178 8.09339 47.4496 8.48403 47.4279 8.99402H45.5236C45.5887 8.10425 45.9631 7.38266 46.6467 6.82926C47.3303 6.26502 48.1984 5.98289 49.2509 5.98289C50.3902 5.98289 51.2963 6.28129 51.969 6.87809C52.6418 7.46404 52.9673 8.41892 52.9456 9.74273C52.9456 9.85124 52.9402 10.1822 52.9293 10.7356C52.9185 11.289 52.9131 11.7122 52.9131 12.0051C52.9131 13.2964 52.9999 14.2947 53.1735 15H51.3994C51.3126 14.5226 51.2583 14.1265 51.2366 13.8118C50.6832 14.745 49.7229 15.2116 48.3557 15.2116ZM54.9732 6.24331L56.9914 12.4934L58.9934 6.24331H61.0117L57.8541 15H56.0311L52.841 6.24331H54.9732ZM61.7948 15H59.5812V12.7864H61.7948V15ZM67.3058 14.6838V1.58013H65.0132C64.6969 1.58013 64.4663 1.63284 64.3214 1.73825C64.1896 1.83048 64.0513 2.02812 63.9064 2.33117L62.5031 5.37485L62.345 5.33533L63.1553 1.0465H63.2739C63.5638 1.17826 63.8075 1.26391 64.0052 1.30344C64.216 1.34296 64.4795 1.36273 64.7957 1.36273H71.1598C71.476 1.36273 71.733 1.34296 71.9306 1.30344C72.1414 1.26391 72.3918 1.17826 72.6816 1.0465H72.8002L73.2746 5.33533L73.1165 5.37485L71.8516 2.33117C71.733 2.02812 71.6012 1.83048 71.4563 1.73825C71.3245 1.63284 71.1005 1.58013 70.7843 1.58013H68.8276V14.6838L70.9622 14.8419V15H65.1713V14.8419L67.3058 14.6838ZM81.9773 14.8419V15H78.2814V14.8419L79.487 14.6838V9.64391C79.487 9.10369 79.4738 8.715 79.4475 8.47783C79.4211 8.22748 79.3684 8.02325 79.2894 7.86514C79.184 7.64114 79.0127 7.46985 78.7755 7.35127C78.5383 7.21951 78.2616 7.15363 77.9454 7.15363C77.2602 7.15363 76.6673 7.43691 76.1666 8.00349V14.6838L77.3722 14.8419V15H73.6763V14.8419L74.882 14.6838V2.094L73.7159 1.65919V1.52084L76.0085 0.75004H76.1666V7.70702C76.5751 7.28539 76.9967 6.96916 77.4315 6.75834C77.8795 6.53435 78.3209 6.42235 78.7557 6.42235C79.151 6.42235 79.5068 6.508 79.823 6.67929C80.1524 6.85058 80.3962 7.08775 80.5543 7.3908C80.6465 7.56209 80.7058 7.79926 80.7321 8.10231C80.7585 8.39218 80.7717 8.90605 80.7717 9.64391V14.6838L81.9773 14.8419ZM89.1739 12.7469L89.253 12.7864L89.1739 13.0038C88.9104 13.7022 88.5151 14.2424 87.9881 14.6245C87.4742 15.0066 86.8549 15.1976 86.1302 15.1976C85.4187 15.1976 84.7863 15.0132 84.2329 14.6442C83.6795 14.2753 83.2447 13.7614 82.9284 13.1026C82.6254 12.4438 82.4739 11.6862 82.4739 10.8298C82.4739 9.97331 82.6386 9.2091 82.968 8.53712C83.2974 7.86514 83.7651 7.34468 84.3712 6.97575C84.9773 6.60682 85.6691 6.42235 86.4465 6.42235C87.3688 6.42235 88.0737 6.69905 88.5612 7.25245C89.0619 7.79267 89.3189 8.58324 89.332 9.62415L89.2134 9.72297H83.8771C83.8508 10.0655 83.8376 10.3357 83.8376 10.5333C83.8376 11.7323 84.0813 12.6481 84.5689 13.2805C85.0564 13.8998 85.7349 14.2094 86.6046 14.2094C87.0526 14.2094 87.4808 14.1106 87.8892 13.913C88.3109 13.7022 88.6798 13.3925 88.996 12.9841L89.1739 12.7469ZM86.2291 6.63976C85.6098 6.63976 85.0959 6.89669 84.6874 7.41056C84.279 7.92443 84.0155 8.62276 83.8969 9.50556L87.7311 9.36721C87.7707 9.2091 87.7904 8.94558 87.7904 8.57665C87.7904 7.86514 87.6521 7.36445 87.3754 7.07457C87.1119 6.7847 86.7297 6.63976 86.2291 6.63976ZM98.2662 14.664C98.8328 14.4137 99.3071 14.0777 99.6892 13.656C100.335 12.9314 100.822 11.8509 101.152 10.4147L101.409 10.4542V15H101.152L100.48 13.913C99.8869 14.3478 99.2412 14.6904 98.5429 14.9407C97.8577 15.1911 97.1923 15.3162 96.5467 15.3162C95.4004 15.3162 94.3463 15 93.3844 14.3675C92.4358 13.7351 91.6847 12.8786 91.1313 11.7982C90.5911 10.7046 90.321 9.49898 90.321 8.18136C90.321 6.87693 90.5911 5.6779 91.1313 4.58429C91.6847 3.49067 92.4358 2.62764 93.3844 1.99518C94.3331 1.36273 95.374 1.0465 96.5072 1.0465C97.1001 1.0465 97.7062 1.14532 98.3255 1.34296C98.9579 1.52743 99.6563 1.82389 100.42 2.23235L100.895 1.28367H101.152L101.349 5.73061L101.073 5.80966C100.888 4.7951 100.598 3.95842 100.203 3.29962C99.8078 2.65399 99.2939 2.15988 98.6615 1.8173C98.029 1.46155 97.3307 1.28367 96.5665 1.28367C95.1698 1.28367 94.096 1.88319 93.3449 3.08221C92.5939 4.28124 92.2184 5.98095 92.2184 8.18136C92.2184 10.3686 92.5939 12.0617 93.3449 13.2608C94.096 14.4466 95.1632 15.0395 96.5467 15.0395C97.1396 15.0395 97.7128 14.9144 98.2662 14.664ZM107.057 6.42235C107.32 6.42235 107.544 6.51459 107.729 6.69905C107.913 6.87034 108.006 7.08116 108.006 7.33151C108.006 7.54232 107.933 7.7202 107.788 7.86514C107.643 8.01007 107.465 8.08254 107.255 8.08254C107.123 8.08254 107.011 8.05619 106.919 8.00349C106.84 7.93761 106.754 7.84537 106.662 7.72679C106.569 7.62138 106.484 7.54232 106.405 7.48962C106.339 7.43691 106.253 7.41056 106.148 7.41056C105.937 7.41056 105.72 7.53574 105.496 7.78608C105.285 8.03643 105.133 8.3263 105.041 8.6557V14.6838L106.622 14.8419V15H102.551V14.8419L103.756 14.6838V7.76632L102.59 7.33151V7.19316L104.824 6.42235H104.982V8.1616C105.72 7.0021 106.411 6.42235 107.057 6.42235ZM114.957 12.7469L115.036 12.7864L114.957 13.0038C114.693 13.7022 114.298 14.2424 113.771 14.6245C113.257 15.0066 112.638 15.1976 111.913 15.1976C111.202 15.1976 110.569 15.0132 110.016 14.6442C109.462 14.2753 109.028 13.7614 108.711 13.1026C108.408 12.4438 108.257 11.6862 108.257 10.8298C108.257 9.97331 108.422 9.2091 108.751 8.53712C109.08 7.86514 109.548 7.34468 110.154 6.97575C110.76 6.60682 111.452 6.42235 112.229 6.42235C113.152 6.42235 113.857 6.69905 114.344 7.25245C114.845 7.79267 115.102 8.58324 115.115 9.62415L114.996 9.72297H109.66C109.634 10.0655 109.621 10.3357 109.621 10.5333C109.621 11.7323 109.864 12.6481 110.352 13.2805C110.839 13.8998 111.518 14.2094 112.388 14.2094C112.836 14.2094 113.264 14.1106 113.672 13.913C114.094 13.7022 114.463 13.3925 114.779 12.9841L114.957 12.7469ZM112.012 6.63976C111.393 6.63976 110.879 6.89669 110.47 7.41056C110.062 7.92443 109.798 8.62276 109.68 9.50556L113.514 9.36721C113.554 9.2091 113.573 8.94558 113.573 8.57665C113.573 7.86514 113.435 7.36445 113.158 7.07457C112.895 6.7847 112.513 6.63976 112.012 6.63976ZM117.8 15.1383C117.299 15.1383 116.884 14.9671 116.555 14.6245C116.239 14.2687 116.08 13.8142 116.08 13.2608C116.08 12.6019 116.377 12.0749 116.97 11.6796C117.576 11.2843 118.597 10.9418 120.033 10.6519V8.85335C120.033 8.08913 119.948 7.56209 119.776 7.27221C119.605 6.96916 119.309 6.81764 118.887 6.81764C118.479 6.81764 118.149 6.92963 117.899 7.15363C117.648 7.36445 117.523 7.65432 117.523 8.02325L117.543 8.55688C117.543 8.88629 117.477 9.14981 117.345 9.34745C117.227 9.53192 117.056 9.62415 116.832 9.62415C116.634 9.62415 116.469 9.55827 116.337 9.42651C116.219 9.29475 116.16 9.12346 116.16 8.91264C116.16 8.59641 116.311 8.25383 116.614 7.8849C116.93 7.50279 117.332 7.18657 117.82 6.93622C118.413 6.60682 119.025 6.44212 119.658 6.44212C120.027 6.44212 120.336 6.51459 120.587 6.65952C120.85 6.80446 121.041 7.00869 121.16 7.27221C121.226 7.4435 121.265 7.65432 121.278 7.90467C121.305 8.15501 121.318 8.63594 121.318 9.34745V13.1224C121.318 13.5967 121.364 13.9261 121.456 14.1106C121.549 14.2819 121.713 14.3675 121.95 14.3675C122.306 14.3675 122.57 14.2424 122.741 13.992L122.82 14.0316C122.662 14.361 122.451 14.6179 122.188 14.8024C121.924 14.9736 121.641 15.0593 121.338 15.0593C120.995 15.0593 120.712 14.9605 120.488 14.7628C120.264 14.552 120.139 14.2753 120.112 13.9327L120.053 13.913C119.75 14.2951 119.401 14.5981 119.006 14.8221C118.61 15.0329 118.208 15.1383 117.8 15.1383ZM118.65 14.3873C118.927 14.3873 119.183 14.328 119.421 14.2094C119.671 14.0777 119.875 13.8932 120.033 13.656V10.8693C119.348 11.0406 118.815 11.2119 118.432 11.3832C118.063 11.5544 117.8 11.7587 117.642 11.9958C117.484 12.233 117.405 12.5295 117.405 12.8852C117.405 13.3464 117.517 13.7153 117.741 13.992C117.965 14.2555 118.268 14.3873 118.65 14.3873ZM122.832 6.81764L125.006 4.72264L125.086 4.7424V6.62H127.339L127.22 6.93622H125.086V12.9841C125.086 13.4452 125.158 13.7878 125.303 14.0118C125.461 14.328 125.758 14.4861 126.192 14.4861C126.403 14.4861 126.607 14.4334 126.805 14.328C127.003 14.2226 127.22 14.0513 127.457 13.8142L127.536 13.8734C127.339 14.2819 127.055 14.6047 126.686 14.8419C126.331 15.0791 125.949 15.1976 125.54 15.1976C125.118 15.1976 124.743 15.0791 124.414 14.8419C124.19 14.6838 124.031 14.4795 123.939 14.2292C123.847 13.9789 123.801 13.6494 123.801 13.241V6.91646H122.872L122.832 6.81764ZM131.757 6.42235C132.522 6.42235 133.2 6.60682 133.793 6.97575C134.386 7.34468 134.847 7.86514 135.177 8.53712C135.506 9.19592 135.671 9.95355 135.671 10.81C135.671 11.6664 135.506 12.4307 135.177 13.1026C134.847 13.7614 134.386 14.2753 133.793 14.6442C133.2 15.0132 132.522 15.1976 131.757 15.1976C130.993 15.1976 130.315 15.0132 129.722 14.6442C129.129 14.2753 128.668 13.7614 128.338 13.1026C128.009 12.4307 127.844 11.6664 127.844 10.81C127.844 9.95355 128.009 9.19592 128.338 8.53712C128.668 7.86514 129.129 7.34468 129.722 6.97575C130.315 6.60682 130.993 6.42235 131.757 6.42235ZM129.307 10.81C129.307 12.1276 129.524 13.1553 129.959 13.8932C130.394 14.6311 130.993 15 131.757 15C132.522 15 133.121 14.6311 133.556 13.8932C133.991 13.1553 134.208 12.1276 134.208 10.81C134.208 9.49239 133.991 8.46465 133.556 7.72679C133.121 6.98893 132.522 6.62 131.757 6.62C130.993 6.62 130.394 6.98893 129.959 7.72679C129.524 8.46465 129.307 9.49239 129.307 10.81ZM140.861 6.42235C141.124 6.42235 141.348 6.51459 141.533 6.69905C141.717 6.87034 141.809 7.08116 141.809 7.33151C141.809 7.54232 141.737 7.7202 141.592 7.86514C141.447 8.01007 141.269 8.08254 141.058 8.08254C140.926 8.08254 140.814 8.05619 140.722 8.00349C140.643 7.93761 140.558 7.84537 140.465 7.72679C140.373 7.62138 140.287 7.54232 140.208 7.48962C140.142 7.43691 140.057 7.41056 139.951 7.41056C139.741 7.41056 139.523 7.53574 139.299 7.78608C139.088 8.03643 138.937 8.3263 138.845 8.6557V14.6838L140.426 14.8419V15H136.354V14.8419L137.56 14.6838V7.76632L136.394 7.33151V7.19316L138.627 6.42235H138.785V8.1616C139.523 7.0021 140.215 6.42235 140.861 6.42235Z" fill="#1E2EB8"/>
</svg>
